<svg width="57" height="56" viewBox="0 0 57 56" fill="none" xmlns="http://www.w3.org/2000/svg">
<rect x="0.800049" width="56" height="56" rx="28" fill="#F4FAFE"/>
<rect x="6.80005" y="6" width="44" height="44" rx="22" fill="#E9F4FF"/>
<path fill-rule="evenodd" clip-rule="evenodd" d="M37.6024 21.8698H34.9357V19.2031C34.9357 18.7605 34.5731 18.4031 34.1357 18.4031C33.6931 18.4031 33.3357 18.7605 33.3357 19.2031V21.8698H30.6691C30.2264 21.8698 29.8691 22.2271 29.8691 22.6698C29.8691 23.1066 30.2264 23.4698 30.6691 23.4698H33.3357V26.1365C33.3357 26.5733 33.6931 26.9365 34.1357 26.9365C34.5731 26.9365 34.9357 26.5733 34.9357 26.1365V23.4698H37.6024C38.0397 23.4698 38.4024 23.1066 38.4024 22.6698C38.4024 22.2271 38.0397 21.8698 37.6024 21.8698ZM37.0643 28.8005H31.2024C30.3176 28.8005 29.6003 29.5178 29.6003 30.4026V36.2645C29.6003 37.1493 30.3176 37.8671 31.2024 37.8671H37.0643C37.9491 37.8671 38.6669 37.1493 38.6669 36.2645V30.4026C38.6669 29.5178 37.9491 28.8005 37.0643 28.8005ZM37.0643 30.4005L37.0669 30.4026L37.0643 36.2671L31.2003 36.2645L31.2024 30.4005H37.0643ZM26.3976 28.8005H20.5357C19.6509 28.8005 18.9336 29.5178 18.9336 30.4026V36.2645C18.9336 37.1493 19.6509 37.8671 20.5357 37.8671H26.3976C27.2824 37.8671 28.0003 37.1493 28.0003 36.2645V30.4026C28.0003 29.5178 27.2824 28.8005 26.3976 28.8005ZM26.3976 30.4005L26.4003 30.4026L26.3976 36.2671L20.5336 36.2645L20.5357 30.4005H26.3976ZM26.3976 18.1338H20.5357C19.6509 18.1338 18.9336 18.8511 18.9336 19.7359V25.5978C18.9336 26.4826 19.6509 27.2005 20.5357 27.2005H26.3976C27.2824 27.2005 28.0003 26.4826 28.0003 25.5978V19.7359C28.0003 18.8511 27.2824 18.1338 26.3976 18.1338ZM26.3976 19.7338L26.4003 19.7359L26.3976 25.6005L20.5336 25.5978L20.5357 19.7338H26.3976Z" fill="#255DEE"/>
</svg>
