<svg width="57" height="56" viewBox="0 0 57 56" fill="none" xmlns="http://www.w3.org/2000/svg">
<rect x="0.599609" width="56" height="56" rx="28" fill="#F4FAFE"/>
<rect x="6.59961" y="6" width="44" height="44" rx="22" fill="#E9F4FF"/>
<path fill-rule="evenodd" clip-rule="evenodd" d="M23.5322 25.0669V24.5336C23.5322 24.2392 23.7711 24.0002 24.0655 24.0002H28.3322C28.6266 24.0002 28.8655 24.2392 28.8655 24.5336V25.0669C28.8655 25.3613 28.6266 25.6002 28.3322 25.6002H24.0655C23.7711 25.6002 23.5322 25.3613 23.5322 25.0669ZM23.5322 21.8669V21.3336C23.5322 21.0392 23.7711 20.8002 24.0655 20.8002H32.0655C32.3599 20.8002 32.5988 21.0392 32.5988 21.3336V21.8669C32.5988 22.1613 32.3599 22.4002 32.0655 22.4002H24.0655C23.7711 22.4002 23.5322 22.1613 23.5322 21.8669ZM35.7988 37.3336H21.3988V35.7965L25.1983 32.4722L27.8884 34.2658C28.1898 34.4669 28.5871 34.4397 28.8591 34.2024L33.1258 30.469C33.458 30.1778 33.4916 29.6728 33.201 29.34C32.9098 29.0077 32.4042 28.9736 32.0719 29.2648L28.266 32.5949L25.5759 30.8013C25.2751 30.6002 24.8778 30.6274 24.6052 30.8648L21.3988 33.6706V18.6669H35.7988V37.3336ZM36.3322 17.0669H20.8655C20.2767 17.0669 19.7988 17.5448 19.7988 18.1336V37.8669C19.7988 38.4557 20.2767 38.9336 20.8655 38.9336H36.3322C36.921 38.9336 37.3988 38.4557 37.3988 37.8669V18.1336C37.3988 17.5448 36.921 17.0669 36.3322 17.0669Z" fill="#255DEE"/>
</svg>
