<svg width="57" height="56" viewBox="0 0 57 56" fill="none" xmlns="http://www.w3.org/2000/svg">
<rect x="0.600098" width="56" height="56" rx="28" fill="#F4FAFE"/>
<rect x="6.6001" y="6" width="44" height="44" rx="22" fill="#E9F4FF"/>
<path fill-rule="evenodd" clip-rule="evenodd" d="M36.5998 36.7996C35.8649 36.7996 35.2665 36.2012 35.2665 35.4663C35.2665 34.7313 35.8649 34.1329 36.5998 34.1329C37.3348 34.1329 37.9332 34.7313 37.9332 35.4663C37.9332 36.2012 37.3348 36.7996 36.5998 36.7996ZM28.5998 31.9996C27.2766 31.9996 26.1998 30.9228 26.1998 29.5996C26.1998 28.2764 27.2766 27.1996 28.5998 27.1996C29.9236 27.1996 30.9998 28.2764 30.9998 29.5996C30.9998 30.9228 29.9236 31.9996 28.5998 31.9996ZM20.5998 36.7996C19.8649 36.7996 19.2665 36.2012 19.2665 35.4663C19.2665 34.7313 19.8649 34.1329 20.5998 34.1329C21.3353 34.1329 21.9332 34.7313 21.9332 35.4663C21.9332 36.2012 21.3353 36.7996 20.5998 36.7996ZM27.2665 20.5329C27.2665 19.798 27.8649 19.1996 28.5998 19.1996C29.3353 19.1996 29.9332 19.798 29.9332 20.5329C29.9332 21.2679 29.3353 21.8663 28.5998 21.8663C27.8649 21.8663 27.2665 21.2679 27.2665 20.5329ZM36.5998 32.5329C35.9001 32.5329 35.2585 32.7788 34.7545 33.1873L32.2222 31.2887C32.4622 30.7745 32.5998 30.2039 32.5998 29.5996C32.5998 27.6647 31.2254 26.0503 29.3998 25.6796V23.3532C30.6308 23.0044 31.5332 21.8753 31.5332 20.5329C31.5332 18.9127 30.2201 17.5996 28.5998 17.5996C26.9801 17.5996 25.6665 18.9127 25.6665 20.5329C25.6665 21.8753 26.5694 23.0044 27.7998 23.3532V25.6796C25.9742 26.0508 24.5998 27.6647 24.5998 29.5996C24.5998 30.2039 24.738 30.7745 24.9774 31.2881L22.4452 33.1873C21.9412 32.7788 21.2996 32.5329 20.5998 32.5329C18.9801 32.5329 17.6665 33.846 17.6665 35.4663C17.6665 37.0865 18.9801 38.3996 20.5998 38.3996C22.2201 38.3996 23.5332 37.0865 23.5332 35.4663C23.5332 35.126 23.4724 34.8007 23.3662 34.4972L25.9316 32.5729C26.6398 33.2092 27.5732 33.5996 28.5998 33.5996C29.627 33.5996 30.5604 33.2092 31.2686 32.5735L33.8334 34.4972C33.7273 34.8007 33.6665 35.126 33.6665 35.4663C33.6665 37.0865 34.9796 38.3996 36.5998 38.3996C38.2201 38.3996 39.5332 37.0865 39.5332 35.4663C39.5332 33.846 38.2201 32.5329 36.5998 32.5329Z" fill="#255DEE"/>
</svg>
