<svg width="56" height="56" viewBox="0 0 56 56" fill="none" xmlns="http://www.w3.org/2000/svg">
<rect width="56" height="56" rx="28" fill="#F4FAFE"/>
<rect x="6" y="6" width="44" height="44" rx="22" fill="#E9F4FF"/>
<path fill-rule="evenodd" clip-rule="evenodd" d="M36.7996 26.5021C36.7996 26.5965 36.75 26.6824 36.6705 26.7304L34.3324 27.4099C34.5463 26.756 34.6663 26.0589 34.6663 25.3331V20.2664H36.5329C36.6801 20.2664 36.7996 20.3859 36.7996 20.5331V26.5021ZM27.9996 30.3997C25.206 30.3997 22.9329 28.1267 22.9329 25.3331V18.6664H33.0663V25.3331C33.0663 28.1267 30.7932 30.3997 27.9996 30.3997ZM29.3329 34.1331H27.1996V31.9469C27.4625 31.9789 27.7281 31.9997 27.9996 31.9997C28.4561 31.9997 28.902 31.9533 29.3329 31.8659V34.1331ZM32.4897 37.3331H24.0428L24.5761 35.7331H31.9564L32.4897 37.3331ZM19.3287 26.7304C19.2492 26.6824 19.1996 26.5965 19.1996 26.5021V20.5331C19.1996 20.3859 19.3191 20.2664 19.4663 20.2664H21.3329V25.3331C21.3329 26.0589 21.4529 26.756 21.6668 27.4099L19.3287 26.7304ZM36.5329 18.6664H34.6663V18.1331C34.6663 17.5443 34.1884 17.0664 33.5996 17.0664H22.3996C21.8108 17.0664 21.3329 17.5443 21.3329 18.1331V18.6664H19.4663C18.4369 18.6664 17.5996 19.5037 17.5996 20.5331V26.5021C17.5996 27.2435 18.0385 27.9149 18.718 28.2125C18.7495 28.2259 18.782 28.2381 18.8156 28.2477L22.4433 29.3016C22.5175 29.3229 22.5927 29.3336 22.6663 29.3336C22.6695 29.3336 22.6716 29.332 22.6748 29.332C23.4183 30.3208 24.4273 31.0941 25.5996 31.5469V34.1331H23.9996C23.6551 34.1331 23.3495 34.3533 23.2407 34.6803L22.174 37.8803C22.0924 38.124 22.1335 38.3923 22.2839 38.6008C22.4343 38.8093 22.6759 38.9331 22.9329 38.9331H33.5996C33.8567 38.9331 34.0983 38.8093 34.2487 38.6008C34.3991 38.3923 34.4401 38.124 34.3585 37.8803L33.2919 34.6803C33.1831 34.3533 32.8775 34.1331 32.5329 34.1331H30.9329V31.3128C31.8791 30.8477 32.6967 30.1672 33.3244 29.332C33.3276 29.332 33.3297 29.3336 33.3329 29.3336C33.4065 29.3336 33.4817 29.3229 33.5559 29.3016L37.1836 28.2477C37.2172 28.2381 37.2497 28.2259 37.2812 28.2125C37.9607 27.9149 38.3996 27.2435 38.3996 26.5021V20.5331C38.3996 19.5037 37.5623 18.6664 36.5329 18.6664Z" fill="#255DEE"/>
</svg>
