<svg preserveAspectRatio="xMidYMid meet" data-bbox="19.5 30.971 161 137.929" viewBox="19.5 30.971 161 137.929" height="200" width="200" xmlns="http://www.w3.org/2000/svg" data-type="color" role="presentation" aria-hidden="true" aria-label="" wixshapeid="c2cc632a9ec44db49172887845dd7a56.svg"><defs><style>#comp-kvi4r2in3 svg [data-color="1"] {fill: #3876FE;}</style></defs>
    <g>
        <path d="M78.6 31.5c-3.4-1.4-7.1.1-8.3 3.1l-21.6 53-2.4 5.8c-1.3 3.1.5 6.6 3.8 8 3.4 1.4 7.1 0 8.3-3l4.4-10.8 19.6-48c1.2-3-.4-6.7-3.8-8.1z" fill="#00926E" data-color="1"></path>
        <path d="M153.9 93.5l-2.4-5.8-21.6-53c-1.3-3.1-5-4.5-8.3-3.1-3.4 1.4-5.1 5.1-3.8 8.1l19.6 48 4.4 10.8c1.3 3.1 5 4.4 8.3 3 3.3-1.4 5.1-4.9 3.8-8z" fill="#00926E" data-color="1"></path>
        <path d="M172.3 87.7h-17.8l2.4 5.9c1.7 4.4-.6 9.5-5.3 11.4-4.7 2-10.1 0-11.8-4.3l-5.3-13H65.9l-5.3 13c-1.7 4.4-7.1 6.3-11.8 4.4-4.7-2-7.2-7.1-5.3-11.4l2.4-5.9H27.8c-4.1 0-8.3 3.2-8.3 7.3v.2c0 4.1 4.2 7.5 8.3 7.5h5.1c-.5 1.2-.7 2.1-.7 3.2l6.6 54.8c0 4.4 3.5 8.1 7.9 8.1h106.9c4.4 0 7.9-3.8 7.9-8.1l7.2-54.6c0-1.2-.2-2.2-.7-3.4h4.4c4.1 0 8.1-3.5 8.1-7.5v-.2c-.1-4.2-4.1-7.4-8.2-7.4zM68.1 153.1c0 3.4-3.9 6-7.5 6s-7.5-2.7-7.5-6v-32c0-3.4 3.9-6 7.5-6s7.5 2.7 7.5 6v32zm25.5 0c0 3.4-2.8 6-6.4 6s-6.4-2.7-6.4-6v-32c0-3.4 2.8-6 6.4-6s6.4 2.7 6.4 6v32zm25.4 0c0 3.4-2.8 6-6.4 6s-6.4-2.7-6.4-6v-32c0-3.4 2.8-6 6.4-6s6.4 2.7 6.4 6v32zm27.8 0c0 3.4-2.8 6-6.4 6s-6.4-2.7-6.4-6v-32c0-3.4 2.8-6 6.4-6s6.4 2.7 6.4 6v32z" fill="#00926E" data-color="1"></path>
    </g>
</svg>