<svg preserveAspectRatio="xMidYMid meet" data-bbox="40.5 17.5 119 165.1" viewBox="40.5 17.5 119 165.1" height="200" width="200" xmlns="http://www.w3.org/2000/svg" data-type="color" role="presentation" aria-hidden="true" aria-label="" wixshapeid="877ec7e9c9af4ec5b52f8268458a9d1b.svg"><defs><style>#comp-kvi4ps9y svg [data-color="1"] {fill: #3876FE;}</style></defs>
    <g>
        <path d="M135.4 17.5H64.6c-13.4 0-24.1 9.7-24.1 24.2v116.7c0 13.5 11 24.2 24.1 24.2h70.8c13.4 0 24.1-11 24.1-24.2V41.7c0-14.5-10.7-24.2-24.1-24.2zM100 174.9c-3.4 0-6.5-2.8-6.5-6.6 0-3.5 2.8-6.6 6.5-6.6 3.4 0 6.5 2.8 6.5 6.6s-2.7 6.6-6.5 6.6zm49.9-17.9H50.8V41.3c0-6.2 6.2-12.4 12.4-12.4h74.3c6.2 0 12.7 6.9 12.7 12.8-.3 0-.3 115.3-.3 115.3z" fill="#00926E" data-color="1"></path>
    </g>
</svg>