<!DOCTYPE svg PUBLIC "-//W3C//DTD SVG 1.1//EN" "http://www.w3.org/Graphics/SVG/1.1/DTD/svg11.dtd">
<!-- Uploaded to: SVG Repo, www.svgrepo.com, Transformed by: SVG Repo Mixer Tools -->
<svg version="1.1" id="Icons" xmlns="http://www.w3.org/2000/svg" xmlns:xlink="http://www.w3.org/1999/xlink" viewBox="0 0 32 32" xml:space="preserve" width="800px" height="800px" fill="#4caf50">
<g id="SVGRepo_bgCarrier" stroke-width="0"/>
<g id="SVGRepo_tracerCarrier" stroke-linecap="round" stroke-linejoin="round"/>
<g id="SVGRepo_iconCarrier"> <style type="text/css"> .st0{fill:none;stroke:#4caf50;stroke-width:2;stroke-linecap:round;stroke-linejoin:round;stroke-miterlimit:10;} .st1{fill:none;stroke:#4caf50;stroke-width:2;stroke-linejoin:round;stroke-miterlimit:10;} </style> <path class="st0" d="M25,6.7c-3.4,0-6.6-1.4-9-3.7c-2.4,2.3-5.6,3.7-9,3.7C5.6,6.7,4.3,6.4,3,6c0,14,5.5,19.6,13,23 c7.5-3.4,13-9,13-23C27.7,6.4,26.4,6.7,25,6.7z"/> <polygon class="st0" points="16,9.5 17.5,14 22.2,14 18.4,16.8 19.8,21.2 16,18.5 12.2,21.2 13.6,16.8 9.8,14 14.5,14 "/> </g>
</svg>